<!DOCTYPE svg PUBLIC "-//W3C//DTD SVG 20010904//EN" "http://www.w3.org/TR/2001/REC-SVG-20010904/DTD/svg10.dtd">
<svg version="1.0" xmlns="http://www.w3.org/2000/svg" width="1048px" height="420px" viewBox="0 0 10480 4200" preserveAspectRatio="xMidYMid meet">
<g id="layer101" fill="#1a3323" stroke="none">
 <path d="M0 3835 c0 -277 3 -365 12 -365 9 0 9 -3 0 -12 -8 -8 -12 -49 -12 -120 0 -106 1 -109 25 -120 20 -9 23 -14 13 -25 -10 -13 -14 -12 -25 3 -11 15 -13 7 -11 -54 2 -64 4 -70 18 -57 14 12 21 9 60 -25 l45 -39 -40 -38 c-22 -21 -51 -45 -65 -54 -14 -9 -22 -20 -18 -24 3 -3 38 15 78 41 55 37 75 46 88 38 28 -18 24 -32 -17 -56 -38 -21 -52 -38 -33 -38 4 0 29 13 54 29 l45 29 26 -26 c15 -14 30 -22 34 -18 4 4 -5 18 -20 30 l-28 22 60 47 c49 39 61 44 71 32 9 -11 9 -27 -1 -72 -7 -32 -13 -74 -15 -93 -1 -19 -18 -77 -38 -128 -53 -135 -49 -244 10 -293 16 -13 17 -12 10 11 -20 66 -25 98 -25 135 l1 40 9 -31 c9 -33 45 -72 55 -61 4 4 1 14 -7 23 -9 11 -14 50 -16 118 -2 84 -1 94 8 61 16 -64 68 -129 88 -110 3 3 1 9 -5 13 -6 4 -22 27 -34 52 l-23 45 32 -34 c38 -41 52 -35 21 9 -20 28 -50 108 -50 132 0 4 15 8 34 8 50 0 86 16 130 58 l39 37 -7 -175 c-3 -96 -6 -224 -6 -284 l0 -109 -36 -34 c-20 -19 -49 -37 -65 -40 -16 -3 -29 -9 -29 -14 0 -18 58 -9 91 14 l34 23 -7 -140 c-15 -287 -25 -365 -53 -411 -14 -24 -37 -53 -52 -64 -14 -12 -24 -24 -20 -27 8 -8 47 14 80 44 24 23 27 24 27 7 0 -51 -74 -158 -150 -217 -44 -34 -35 -44 16 -17 53 28 72 46 104 97 l28 42 1 -271 2 -271 -25 -43 c-24 -40 -71 -87 -112 -111 -10 -7 -16 -15 -13 -18 11 -11 71 19 103 50 l29 29 -19 -34 c-10 -18 -32 -47 -47 -64 -33 -36 -28 -47 10 -22 l28 19 -16 -24 c-12 -18 -45 -45 -55 -45 -1 0 -5 -10 -8 -22 -11 -36 12 -28 61 22 l45 45 -7 -38 c-3 -20 -11 -41 -16 -47 -12 -12 -12 -28 1 -20 5 3 10 -1 10 -9 0 -9 -23 -39 -50 -68 -28 -28 -50 -53 -50 -55 0 -9 26 0 53 19 l32 22 -20 -23 c-11 -13 -32 -30 -48 -37 -15 -8 -25 -19 -22 -24 9 -14 58 14 89 50 22 26 26 28 26 12 0 -30 -21 -85 -41 -108 -11 -11 -19 -23 -19 -27 0 -9 44 -4 59 7 18 14 10 -3 -26 -52 -14 -18 -22 -36 -19 -39 10 -10 60 31 74 61 11 22 16 25 28 15 18 -15 18 -37 -1 -73 -9 -16 -13 -31 -10 -34 8 -8 37 22 51 53 13 29 14 29 8 -15 -4 -25 -13 -58 -20 -74 -8 -16 -12 -31 -9 -34 9 -9 38 23 52 56 11 26 18 32 31 27 38 -16 51 -16 81 -1 41 22 40 36 -3 29 -19 -3 -42 0 -52 6 -17 9 -16 10 9 11 29 0 127 48 127 63 0 5 -13 6 -30 2 -16 -3 -37 -2 -47 4 -16 9 -16 10 5 11 28 0 62 17 62 31 0 5 -10 9 -22 8 -13 -1 -34 -1 -48 0 -24 2 -24 2 8 16 42 19 42 38 0 31 -18 -3 -27 -3 -20 0 22 10 13 21 -24 27 -33 6 -74 31 -74 46 0 4 10 7 23 7 78 1 117 5 117 14 0 6 -10 10 -22 10 -13 0 -41 9 -63 20 -22 11 -32 18 -22 15 29 -8 19 12 -12 25 -16 6 -38 21 -48 32 -14 16 -10 15 20 -5 45 -30 76 -42 85 -32 4 4 2 10 -5 12 -20 7 -63 44 -63 53 0 6 11 5 26 0 61 -23 59 -3 -2 30 -55 29 -95 84 -104 145 l-7 44 32 -27 c36 -33 93 -58 103 -47 4 4 1 10 -6 13 -58 20 -132 136 -132 206 l0 41 30 -37 c30 -36 95 -67 108 -53 4 4 1 10 -7 13 -27 9 -93 76 -112 114 -17 33 -19 56 -17 161 3 120 3 122 19 92 26 -49 119 -100 119 -65 0 6 -4 10 -9 10 -20 0 -73 55 -101 104 -23 39 -30 64 -30 105 0 46 2 52 13 39 26 -34 81 -58 135 -58 28 0 52 5 52 10 0 6 -10 10 -22 10 -33 1 -99 33 -139 68 -32 28 -34 33 -30 82 l3 52 27 -26 c15 -14 41 -29 59 -32 26 -5 30 -9 21 -21 -20 -23 -2 -26 20 -2 31 33 35 19 11 -42 -23 -63 -23 -59 -9 -59 17 0 59 103 67 166 l9 59 8 -59 c12 -92 -2 -240 -30 -309 -5 -13 -3 -16 8 -11 15 5 40 60 50 109 3 11 5 -18 6 -65 0 -79 -5 -121 -23 -177 -14 -43 15 -24 37 25 31 67 31 268 0 392 -39 152 -54 224 -55 260 0 19 -7 89 -14 155 -17 153 -34 425 -33 535 0 73 2 81 11 55 16 -43 59 -105 90 -128 38 -28 45 -15 15 25 -25 33 -60 108 -54 115 2 2 23 -18 46 -43 61 -68 62 -46 1 28 -29 34 -54 68 -57 75 -4 11 69 113 82 114 4 1 48 -33 98 -74 51 -42 119 -95 152 -118 33 -23 62 -44 65 -47 3 -2 -20 -28 -52 -57 -53 -49 -124 -85 -170 -85 -10 0 -18 -4 -18 -10 0 -5 25 -10 55 -10 65 0 120 24 158 69 l25 31 4 -283 c5 -318 5 -316 -70 -352 -23 -11 -41 -23 -42 -27 0 -17 49 -6 85 17 l37 26 -7 -248 c-6 -236 -8 -250 -31 -300 -14 -29 -37 -62 -51 -73 -14 -11 -24 -23 -20 -26 8 -8 47 14 80 44 25 23 27 24 27 6 0 -54 -119 -224 -156 -224 -8 0 -14 -4 -14 -10 0 -40 123 49 157 113 11 20 35 -290 37 -470 1 -99 -2 -113 -27 -165 -16 -32 -39 -66 -53 -77 -28 -22 -30 -31 -9 -31 21 0 95 76 95 98 0 14 2 15 10 2 24 -37 7 -126 -32 -167 -36 -39 -11 -38 28 1 20 20 37 35 38 34 1 -2 7 -26 12 -53 12 -62 1 -115 -32 -151 -30 -32 -24 -43 11 -20 26 17 26 17 15 -4 -6 -12 -18 -24 -26 -27 -18 -7 -18 -23 -1 -23 19 0 53 39 71 80 l15 35 1 -72 c0 -39 -5 -75 -10 -78 -6 -3 -10 -13 -10 -22 0 -14 3 -13 21 3 12 10 25 28 30 39 11 25 5 -68 -6 -105 l-8 -25 26 24 c14 13 29 36 32 52 6 24 9 27 25 19 26 -14 72 -12 92 4 26 20 22 24 -22 22 -54 -1 -86 26 -141 120 -54 91 -55 110 -1 83 36 -19 132 -27 132 -11 0 4 -23 13 -51 19 -58 14 -106 47 -140 95 l-23 33 35 -30 c40 -35 96 -61 107 -50 4 4 1 10 -7 13 -8 3 -30 20 -50 38 l-36 34 37 -15 c44 -18 48 -18 48 -5 0 6 -10 14 -23 19 -61 23 -116 96 -131 169 l-6 34 33 -29 c38 -33 94 -59 105 -49 4 4 -2 12 -13 18 -67 36 -135 146 -135 216 l0 37 20 -32 c22 -36 52 -58 93 -68 33 -9 37 11 5 24 -31 12 -81 67 -107 116 -18 34 -21 55 -20 146 1 58 -1 112 -5 120 -4 8 -1 5 6 -6 26 -40 76 -84 102 -91 28 -7 52 5 27 14 -30 10 -94 78 -117 124 -15 29 -24 65 -24 93 l0 45 21 -21 c30 -30 82 -49 134 -49 55 0 59 15 8 25 -44 8 -109 43 -140 77 -20 21 -22 35 -25 169 l-3 146 22 -32 c29 -43 96 -75 156 -75 26 0 47 3 47 8 0 4 -27 15 -61 25 -47 14 -72 29 -114 70 l-55 53 0 170 0 169 19 -31 c23 -37 68 -74 90 -74 11 0 5 9 -17 26 -17 14 -44 47 -60 72 l-27 47 0 227 0 227 31 -20 c34 -21 44 -23 44 -11 0 4 -20 20 -45 35 -45 29 -45 29 -45 84 l0 56 23 -33 c12 -18 38 -41 57 -51 22 -12 28 -19 17 -19 -10 0 -15 -4 -12 -10 12 -20 81 -11 120 16 25 17 41 22 48 15 7 -7 6 -65 -2 -178 -11 -149 -15 -175 -40 -228 -16 -33 -43 -75 -61 -93 -18 -18 -30 -35 -27 -38 9 -9 62 32 97 74 l30 37 0 -43 c0 -53 -19 -99 -54 -131 -14 -14 -26 -28 -26 -33 0 -18 60 23 77 53 l18 31 6 -64 c6 -72 -7 -117 -48 -160 -35 -37 -24 -46 16 -13 41 36 39 24 -5 -25 -22 -24 -31 -40 -22 -40 18 0 74 58 87 90 8 21 10 17 10 -30 1 -38 -5 -65 -19 -87 -25 -42 -2 -47 29 -7 l21 27 0 -29 c0 -16 -7 -42 -15 -58 -9 -16 -13 -31 -10 -34 9 -9 38 22 52 56 11 28 16 31 33 22 25 -13 53 -13 85 2 37 17 31 28 -17 28 -25 0 -52 8 -65 18 -27 21 -93 151 -90 179 1 20 1 20 42 2 40 -19 125 -26 125 -11 0 5 -23 14 -51 21 -52 14 -111 56 -131 95 -11 21 -10 21 13 -1 26 -24 98 -57 106 -49 8 7 -7 26 -21 26 -7 0 -25 13 -40 29 l-29 30 47 -14 c27 -8 46 -10 46 -4 0 5 -8 12 -17 16 -64 22 -123 102 -123 167 l0 35 25 -25 c28 -28 94 -59 104 -49 3 4 -3 13 -14 21 -69 49 -115 130 -115 204 l0 45 19 -31 c11 -18 30 -39 42 -48 26 -18 69 -22 69 -6 0 6 -6 10 -14 10 -29 0 -100 99 -110 154 -4 22 8 15 87 -55 51 -45 102 -88 115 -97 34 -22 39 -6 6 20 -16 13 -52 44 -80 69 l-52 47 39 -5 c53 -8 50 10 -6 31 -26 10 -58 33 -75 54 -33 40 -40 68 -14 58 9 -3 17 -6 20 -6 2 0 1 -7 -3 -16 -5 -13 -2 -15 13 -10 13 4 62 -17 149 -64 72 -38 136 -70 143 -70 29 0 7 18 -65 54 -118 58 -197 108 -183 116 6 4 22 5 36 2 23 -4 35 13 14 20 -6 2 9 23 34 47 l44 43 26 -38 c23 -35 24 -38 8 -50 -9 -7 -14 -16 -10 -20 4 -4 14 -1 23 6 13 10 19 8 37 -16 41 -52 111 -124 116 -119 3 3 -13 26 -34 52 -22 27 -50 63 -63 81 l-24 34 26 25 c25 25 25 25 36 5 8 -16 6 -25 -10 -46 -24 -30 -11 -35 16 -6 18 20 18 20 47 -7 22 -21 28 -23 28 -10 0 9 -3 17 -8 17 -4 0 -12 8 -19 19 -9 15 -7 25 14 55 l26 36 25 -36 24 -36 -23 -24 c-29 -31 -16 -44 15 -15 l23 22 18 -28 c12 -18 14 -28 7 -31 -7 -2 -12 -8 -12 -14 0 -5 8 -7 18 -4 14 5 31 -8 65 -45 62 -68 73 -56 13 14 -36 43 -43 56 -31 61 8 3 18 5 21 5 3 0 11 6 17 14 15 19 177 148 177 141 0 -2 16 6 36 20 l37 25 54 -77 c62 -87 100 -129 109 -120 3 4 -14 30 -38 60 -24 29 -56 75 -72 102 l-29 49 34 28 c31 25 35 26 51 12 10 -9 18 -22 18 -30 0 -11 4 -11 20 -3 11 6 20 7 20 2 0 -4 19 -39 41 -77 l41 -68 -23 -18 c-13 -10 -20 -21 -16 -25 4 -4 16 1 27 11 19 18 22 18 38 2 14 -14 14 -21 4 -37 -13 -21 -3 -27 14 -10 7 7 22 -6 46 -38 52 -67 88 -100 88 -79 0 9 -5 19 -11 22 -5 4 -30 32 -54 62 l-43 56 41 56 c23 31 43 58 44 60 2 3 20 -11 41 -31 83 -79 356 -278 381 -278 24 0 7 17 -57 57 -73 45 -233 176 -299 245 l-42 43 46 77 c37 62 49 75 60 66 10 -8 11 -14 3 -22 -17 -17 -11 -29 8 -15 9 7 6 1 -7 -14 -14 -15 -22 -30 -18 -33 7 -7 68 41 66 51 -2 14 9 15 14 2 3 -8 -21 -48 -54 -91 -69 -87 -64 -101 8 -23 26 29 42 45 36 36 -23 -28 -14 -33 13 -8 15 13 28 20 30 14 3 -5 24 -41 48 -79 l43 -68 -36 -33 c-47 -43 -34 -56 13 -14 20 17 38 30 39 28 28 -39 111 -140 131 -158 39 -36 32 -14 -12 38 -21 25 -53 68 -71 95 l-33 48 31 32 c26 26 33 29 41 16 14 -22 12 -28 -10 -35 -11 -3 -20 -11 -20 -16 0 -12 7 -11 31 2 16 8 25 7 40 -7 19 -17 19 -18 -3 -41 -28 -30 -15 -43 15 -15 l23 22 21 -28 c19 -26 20 -29 4 -39 -9 -6 -13 -14 -9 -18 4 -4 14 -2 22 4 13 11 31 -1 108 -71 139 -124 198 -171 206 -164 4 4 -14 24 -38 44 -61 49 -137 128 -183 190 -30 41 -35 53 -24 58 9 3 28 -1 44 -10 15 -8 22 -15 16 -16 -7 0 -13 -5 -13 -11 0 -6 8 -8 19 -4 12 4 65 -19 153 -65 134 -70 158 -79 158 -60 0 6 -5 10 -12 10 -10 0 -242 123 -257 136 -2 2 9 14 25 26 16 13 47 39 69 59 l40 37 27 -37 c26 -36 26 -37 7 -49 -10 -7 -19 -17 -19 -23 0 -7 9 -5 24 5 24 15 25 14 81 -54 50 -63 76 -84 75 -62 -1 4 -19 27 -40 52 l-39 45 26 27 26 27 17 -22 c10 -12 22 -19 26 -14 4 4 -2 17 -13 30 l-21 22 28 37 27 37 57 -78 c71 -97 155 -190 156 -172 0 7 -20 36 -45 63 -45 51 -151 216 -143 224 8 7 83 -109 80 -124 -2 -8 1 -11 8 -7 6 4 22 -5 36 -20 14 -15 28 -24 32 -21 3 4 -6 18 -20 32 l-26 26 61 80 61 80 24 -28 24 -28 -22 -18 c-13 -10 -20 -21 -16 -25 3 -3 15 2 26 12 20 18 21 18 50 -10 34 -32 40 -23 10 15 -25 33 -25 33 11 75 25 28 34 33 45 24 9 -8 14 -8 14 -1 0 6 -5 14 -10 17 -15 9 -1 27 16 21 8 -3 14 -1 14 4 0 6 -5 10 -12 10 -6 0 -8 3 -5 7 4 3 20 -5 35 -19 15 -14 49 -41 76 -61 l48 -37 -26 -10 c-15 -5 -41 -10 -57 -10 -16 0 -29 -4 -29 -9 0 -12 75 -23 105 -15 34 8 32 0 -16 -58 -23 -27 -39 -51 -36 -54 5 -5 51 42 95 96 l21 25 20 -20 21 -21 -32 -54 c-21 -36 -50 -66 -80 -85 -55 -35 -61 -49 -15 -40 44 9 74 30 98 68 l21 32 -6 -34 c-3 -18 -6 -78 -6 -131 l0 -98 -39 -50 c-22 -27 -53 -56 -70 -63 -36 -16 -40 -29 -11 -29 34 0 80 29 100 63 l20 32 0 -38 c0 -20 -10 -58 -22 -84 -24 -50 -91 -123 -114 -123 -8 0 -14 -4 -14 -10 0 -25 72 -1 111 36 l27 26 -9 -47 c-12 -63 -41 -100 -105 -136 -30 -17 -54 -33 -54 -36 0 -6 44 2 75 13 19 7 20 7 2 -13 -10 -12 -32 -27 -48 -33 -27 -12 -40 -30 -20 -30 24 0 79 26 106 49 l29 26 -25 -35 c-32 -44 -101 -80 -152 -80 -26 0 -37 -4 -35 -12 7 -19 91 -21 132 -4 50 21 50 5 -1 -79 -58 -97 -74 -110 -134 -110 -27 0 -49 -3 -49 -6 0 -3 16 -14 35 -25 29 -15 40 -16 64 -7 28 10 30 9 36 -17 6 -27 43 -75 51 -67 3 2 0 16 -6 31 -13 34 -13 112 0 81 9 -24 38 -50 46 -42 3 3 1 14 -5 25 -6 12 -11 49 -11 84 l0 63 19 -40 c19 -42 67 -93 77 -82 4 3 -8 23 -25 44 -40 48 -40 61 -1 21 36 -35 55 -30 21 6 -28 30 -50 103 -40 136 4 14 7 41 8 60 l1 35 25 -37 c23 -34 65 -68 65 -53 0 4 -11 21 -24 38 -26 34 -44 97 -38 135 4 27 19 29 27 2 8 -24 88 -95 93 -81 2 5 -6 19 -18 31 -33 33 -68 118 -76 180 -3 30 -1 138 6 240 7 102 11 219 11 260 l-1 75 21 -42 c20 -42 87 -110 128 -132 33 -18 25 -3 -34 61 -30 32 -59 67 -65 77 -8 16 -6 18 13 14 21 -5 21 -4 -3 16 -14 11 -28 21 -31 21 -4 0 -10 12 -14 28 -16 65 -16 67 13 35 29 -34 82 -70 82 -57 0 4 -10 19 -22 33 -18 21 -16 20 10 -3 l32 -30 -30 -31 c-31 -32 -37 -45 -20 -45 5 0 36 32 67 70 32 39 61 70 66 70 4 0 29 -19 54 -43 l46 -44 -92 -47 c-50 -26 -91 -51 -91 -57 0 -5 45 14 101 41 l101 51 39 -35 38 -35 -72 -62 c-39 -34 -73 -66 -75 -71 -9 -20 19 -3 93 59 44 36 72 57 63 46 -24 -27 -23 -40 2 -18 19 17 21 17 46 0 20 -13 23 -19 13 -26 -25 -15 -1 -21 28 -6 40 21 147 101 199 149 24 22 44 37 44 33 0 -3 16 3 36 16 36 22 37 22 50 4 13 -17 8 -23 -49 -64 -35 -25 -74 -53 -87 -62 -14 -9 -22 -20 -19 -23 4 -4 43 18 88 48 45 31 85 56 90 56 4 0 22 -19 39 -42 17 -24 43 -56 57 -71 49 -51 38 -20 -19 55 -31 40 -56 76 -56 79 0 14 33 19 48 7 13 -11 15 -10 9 6 -8 20 17 56 37 56 6 -1 30 -33 54 -73 l43 -72 -22 -18 c-19 -15 -20 -20 -9 -27 9 -6 20 -4 31 6 14 13 18 13 29 -1 10 -12 10 -18 -1 -32 -12 -15 -12 -16 8 -11 14 4 28 -1 37 -11 15 -16 14 -23 -4 -77 -11 -32 -25 -63 -30 -68 -6 -6 -10 -17 -10 -25 0 -25 38 17 61 70 12 26 25 46 29 44 4 -2 6 -69 5 -147 -2 -151 -22 -252 -66 -327 -11 -18 -17 -36 -14 -40 9 -8 45 37 57 72 6 15 12 26 14 24 6 -6 -44 -147 -57 -164 -13 -15 -6 -28 10 -18 19 11 54 88 73 160 l18 70 -5 -120 c-4 -106 -19 -198 -41 -260 l-7 -20 21 20 c12 11 28 38 36 60 l15 40 0 -50 c1 -44 -15 -132 -35 -205 -7 -22 -6 -24 9 -12 28 24 57 120 63 210 6 88 2 132 -39 369 -13 73 -20 134 -16 135 4 2 4 40 0 85 -5 66 -4 80 6 71 8 -7 13 -7 13 0 0 5 -7 15 -15 22 -12 10 -15 37 -15 121 0 60 3 109 8 109 5 0 125 -95 171 -136 3 -2 -6 -15 -19 -29 -30 -32 -21 -42 13 -15 30 24 36 24 61 5 18 -14 18 -15 -4 -33 l-23 -19 57 -7 c41 -4 72 -16 107 -40 l50 -33 -33 -44 c-18 -24 -48 -51 -65 -59 -41 -19 -45 -43 -5 -34 40 9 71 31 91 65 l18 29 -2 -71 c-2 -58 -7 -75 -26 -96 -28 -30 -77 -53 -114 -53 -33 0 -32 -16 1 -23 42 -8 90 11 120 46 l27 32 -8 -44 c-14 -83 -61 -131 -126 -131 -27 0 -23 -20 4 -21 l22 0 -22 -11 c-13 -6 -23 -15 -23 -20 0 -15 44 -8 78 12 37 23 62 26 62 8 0 -7 -9 -32 -20 -56 -15 -33 -26 -44 -50 -48 -32 -7 -41 -24 -12 -24 13 0 10 -6 -13 -25 -16 -13 -36 -24 -42 -25 -7 0 -13 -7 -13 -14 0 -21 54 -2 103 36 l38 30 -7 -29 c-3 -15 -8 -37 -11 -48 -10 -37 -55 -86 -99 -108 -68 -33 -52 -48 23 -20 17 6 17 6 0 -14 -10 -12 -32 -27 -48 -33 -27 -12 -40 -30 -20 -30 24 0 79 26 106 49 l29 26 -25 -35 c-31 -43 -101 -80 -151 -80 -21 0 -38 -4 -38 -9 0 -24 83 -28 135 -7 48 20 49 4 4 -74 -55 -95 -80 -115 -140 -114 -27 0 -49 -3 -49 -7 0 -4 16 -14 36 -24 27 -13 42 -14 64 -7 26 10 29 8 35 -16 7 -28 42 -72 57 -72 5 0 2 13 -7 30 -8 16 -15 48 -15 72 l0 43 18 -34 c18 -37 52 -60 37 -25 -5 11 -10 51 -12 89 l-4 70 19 -40 c21 -44 68 -92 79 -82 3 4 -3 17 -14 30 -34 38 -39 53 -8 29 37 -30 43 -21 12 20 -35 46 -44 90 -33 154 6 30 13 54 16 54 3 0 12 -13 22 -29 17 -30 58 -60 58 -42 0 5 -5 13 -10 16 -31 19 -67 142 -47 161 3 4 29 -18 58 -47 52 -53 84 -55 35 -2 l-25 27 30 18 c16 10 35 29 41 43 12 28 19 30 35 14 12 -12 2 -61 -18 -85 -7 -8 -9 -17 -5 -21 8 -8 46 27 57 52 6 17 8 15 8 -10 1 -17 -8 -48 -19 -70 -11 -21 -17 -41 -14 -44 9 -10 64 58 64 79 0 21 15 27 25 10 11 -18 72 -11 96 11 l24 20 -30 -4 c-16 -2 -41 -1 -55 3 -24 8 -24 8 -3 9 25 1 123 52 123 64 0 4 -19 7 -42 8 -36 0 -39 2 -20 9 12 5 30 6 39 3 10 -4 14 -2 9 5 -3 6 -2 13 4 17 18 11 11 23 -10 18 -11 -3 -27 -2 -37 1 -15 6 -13 10 12 32 22 18 26 27 16 31 -7 3 -28 18 -45 34 l-31 28 33 1 c49 0 38 14 -28 34 -52 16 -58 20 -45 32 13 13 18 13 39 -1 14 -9 45 -20 71 -23 l45 -7 -30 -37 c-18 -21 -26 -38 -20 -38 24 0 53 23 80 67 l29 45 6 -35 c8 -44 -8 -97 -42 -138 -14 -16 -23 -33 -19 -36 8 -9 66 46 76 72 5 14 10 2 18 -45 14 -76 5 -121 -33 -164 -30 -35 -25 -45 10 -22 26 17 26 17 15 -4 -6 -12 -18 -24 -26 -27 -16 -6 -19 -23 -5 -23 21 0 63 47 75 85 l14 40 8 -40 c6 -36 -1 -80 -21 -129 -14 -33 30 -1 49 36 l17 33 -5 -54 c-3 -29 -11 -59 -17 -67 -7 -8 -9 -18 -5 -22 12 -11 56 46 56 73 0 22 2 23 30 12 23 -9 36 -8 65 6 19 9 35 20 35 24 0 5 -22 8 -49 8 -60 0 -77 14 -131 107 -45 79 -45 104 0 81 33 -16 121 -14 127 3 2 5 -12 10 -32 11 -49 1 -121 39 -147 76 -19 28 -19 30 -2 16 42 -36 115 -62 114 -41 -1 4 -21 20 -46 36 -49 31 -53 43 -10 26 69 -26 74 -4 7 28 -56 26 -99 80 -108 137 l-6 38 34 -25 c37 -28 99 -52 108 -42 3 4 -3 11 -13 18 -41 24 -98 81 -115 115 -10 20 -21 59 -25 86 l-6 50 19 -29 c24 -35 69 -66 99 -66 32 0 27 12 -17 37 -34 20 -101 102 -101 125 0 5 18 -1 40 -12 22 -11 40 -18 40 -14 0 3 -18 27 -40 53 -34 41 -40 54 -40 95 l0 47 48 -58 c88 -105 115 -113 34 -9 -65 82 -71 94 -35 68 35 -24 93 -40 93 -25 0 5 -12 15 -26 22 -15 6 -24 15 -20 18 3 3 50 -28 103 -69 161 -124 277 -200 282 -187 2 7 -1 15 -8 17 -24 8 -175 121 -260 196 l-90 78 21 29 c21 28 38 37 38 21 0 -9 104 -148 159 -212 16 -19 33 -31 37 -27 4 4 -6 21 -22 38 l-29 30 30 22 c16 12 30 22 31 22 1 0 28 -34 61 -75 70 -88 93 -110 93 -88 0 8 -9 23 -21 34 -11 10 -43 49 -69 85 l-48 67 32 31 32 31 32 -42 c38 -49 38 -52 10 -72 -31 -22 -14 -32 18 -12 l26 18 81 -82 c90 -91 252 -230 267 -230 16 0 11 14 -9 27 -37 23 -171 144 -171 155 0 5 -23 40 -52 77 -28 36 -56 72 -62 80 -6 7 7 1 29 -14 22 -15 39 -31 37 -37 -1 -5 2 -7 7 -4 16 11 40 -5 34 -22 -5 -11 -2 -14 11 -9 11 4 67 -20 160 -68 78 -41 146 -75 149 -75 24 0 -4 22 -75 59 -138 72 -189 103 -186 111 4 9 121 110 128 110 3 0 15 -15 28 -33 19 -28 20 -33 7 -43 -8 -6 -15 -17 -15 -24 0 -9 6 -7 20 5 19 17 21 17 33 2 68 -91 139 -162 124 -125 -2 7 21 42 52 76 l57 64 63 -76 c58 -71 86 -93 79 -63 -3 12 100 147 112 147 3 0 11 -5 18 -12 6 -6 15 -8 19 -4 5 4 0 14 -10 21 -18 13 -18 15 5 47 12 18 24 35 26 37 1 3 24 -16 50 -41 26 -25 57 -52 70 -60 23 -15 22 -16 -55 -61 -43 -24 -106 -59 -140 -76 -35 -17 -63 -36 -63 -42 0 -6 69 25 154 69 117 61 157 77 166 69 9 -9 11 -8 8 6 -2 13 13 27 51 49 l54 32 -41 -55 c-23 -30 -53 -70 -66 -89 -24 -36 -106 -116 -166 -162 -19 -15 -31 -30 -27 -34 9 -10 133 92 258 213 l105 102 22 -21 c12 -12 25 -19 29 -15 4 5 -5 18 -19 30 l-27 22 37 43 38 42 28 -29 28 -30 -23 -37 c-12 -21 -45 -64 -71 -96 -28 -33 -43 -58 -35 -58 8 0 45 38 82 85 70 87 80 92 113 53 9 -11 6 -20 -13 -41 -14 -14 -25 -32 -25 -39 1 -18 96 87 156 171 27 39 52 70 56 71 4 0 15 -11 24 -25 16 -25 16 -27 -7 -52 -41 -44 -191 -166 -266 -216 -40 -27 -73 -50 -73 -53 0 -24 165 84 316 207 l71 58 26 -27 c32 -32 38 -10 7 23 -19 20 -19 23 -4 36 14 11 18 10 35 -11 10 -14 19 -28 19 -31 0 -3 -27 -38 -60 -77 -33 -40 -60 -74 -60 -77 0 -19 28 5 77 65 57 69 58 70 77 51 19 -19 19 -20 1 -48 -10 -15 -36 -49 -57 -74 -21 -25 -38 -48 -38 -51 0 -3 59 26 132 63 73 38 134 66 137 64 2 -3 15 5 28 17 13 12 23 16 23 10 0 -7 5 -12 11 -12 6 0 9 6 6 14 -4 9 7 22 29 35 19 12 37 21 40 21 29 0 -107 -172 -197 -248 -43 -37 -74 -69 -69 -70 13 -5 117 80 233 189 73 68 90 79 102 69 9 -7 19 -10 23 -6 4 4 -1 13 -11 21 -15 11 -16 14 -2 25 13 10 19 10 35 -5 11 -10 23 -15 28 -11 4 4 -4 17 -17 27 -22 18 -23 21 -9 36 15 14 19 13 52 -12 32 -24 35 -30 23 -44 -73 -87 -99 -122 -95 -127 3 -2 33 25 66 62 l59 66 42 -30 41 -30 -48 -35 c-26 -20 -60 -41 -75 -48 -15 -7 -27 -18 -27 -26 0 -18 22 -6 107 54 61 43 63 43 88 27 28 -18 33 -10 10 16 -14 16 -13 19 10 34 24 16 26 16 47 -4 21 -20 38 -26 38 -14 0 3 -10 14 -23 24 -14 12 -19 22 -12 28 6 5 45 39 87 75 l77 67 45 -58 44 -58 -33 -44 c-17 -25 -42 -54 -54 -64 -11 -11 -21 -26 -21 -34 0 -20 38 15 88 80 24 32 39 45 46 38 16 -16 30 -12 16 5 -15 18 -4 36 18 28 15 -6 16 -5 2 12 -15 19 -14 19 13 2 36 -23 50 -12 18 12 l-24 18 39 64 c21 35 39 65 40 67 1 2 25 -13 53 -34 l50 -37 -21 -31 c-12 -17 -34 -45 -51 -63 -16 -17 -27 -37 -25 -44 2 -6 26 15 53 47 27 32 52 63 57 68 4 5 23 -3 43 -18 49 -37 59 -23 13 17 l-36 32 18 28 c11 17 20 24 24 18 17 -26 24 -5 25 75 1 50 -3 91 -9 99 -8 9 -8 15 0 20 7 4 10 157 10 471 l0 464 -5240 0 -5240 0 0 -365z m1755 -275 c16 -30 21 -90 8 -90 -5 0 -20 11 -35 24 -26 24 -26 24 -10 60 9 19 18 35 19 36 1 0 9 -13 18 -30z m183 13 c17 -33 2 -47 -24 -22 -13 12 -24 26 -24 31 0 15 39 8 48 -9z m2906 2 c-4 -8 -10 -12 -15 -9 -14 8 -10 24 6 24 9 0 12 -6 9 -15z m-4799 -50 c-9 -20 -18 -35 -21 -33 -2 3 3 22 11 43 9 20 18 35 21 33 2 -3 -3 -22 -11 -43z m1385 -9 c0 -18 -2 -18 -25 4 -19 18 -22 26 -14 37 10 11 14 10 25 -4 7 -10 14 -27 14 -37z m-649 11 c-8 -8 -11 -7 -11 4 0 20 13 34 18 19 3 -7 -1 -17 -7 -23z m1905 -27 c-33 -50 -41 -51 -19 -2 23 51 36 67 41 53 2 -7 -8 -30 -22 -51z m2339 40 c3 -5 3 -15 -1 -21 -6 -11 -23 6 -24 24 0 10 18 9 25 -3z m-1680 -51 c-5 -31 -10 -38 -16 -27 -5 9 -4 29 2 47 15 43 23 32 14 -20z m-947 23 c2 -7 -3 -12 -12 -12 -9 0 -16 7 -16 16 0 17 22 14 28 -4z m-1138 -24 c0 -5 -4 -8 -10 -8 -5 0 -10 10 -10 23 0 18 2 19 10 7 5 -8 10 -18 10 -22z m168 -34 c-9 -8 -58 41 -58 58 0 7 14 -2 32 -19 18 -18 29 -35 26 -39z m498 21 c-3 -11 -6 -26 -6 -34 0 -26 -12 -2 -20 38 -7 37 -6 39 12 28 12 -8 17 -19 14 -32z m274 7 c0 -37 -24 -71 -40 -56 -9 9 -6 21 12 48 12 20 24 36 26 36 1 0 2 -13 2 -28z m1340 -9 c0 -20 -3 -24 -11 -16 -7 7 -9 19 -6 27 10 24 17 19 17 -11z m1496 -9 c-16 -11 -22 -11 -28 -1 -11 17 22 41 36 26 8 -7 5 -15 -8 -25z m-2281 -33 c-21 -43 -29 -39 -8 4 9 19 18 33 21 31 2 -2 -4 -18 -13 -35z m2145 35 c0 -13 -29 -56 -33 -49 -7 12 11 53 23 53 5 0 10 -2 10 -4z m-4710 -19 c0 -7 -20 -55 -45 -106 l-45 -93 -30 37 c-17 21 -30 40 -30 42 0 18 122 131 143 132 4 1 7 -5 7 -12z m98 -24 c-16 -19 -29 -5 -16 17 9 13 14 16 20 7 4 -6 2 -17 -4 -24z m1468 12 c3 -8 2 -26 -3 -39 -8 -25 -8 -24 -25 14 -16 39 -16 40 3 40 11 0 22 -7 25 -15z m2595 -1 c19 -17 15 -44 -7 -44 -8 0 -14 3 -14 8 0 4 -3 17 -6 30 -7 26 2 28 27 6z m-3898 -41 c-8 -20 -20 -6 -20 22 0 23 1 24 12 8 7 -9 11 -23 8 -30z m931 0 c4 -9 5 -17 3 -19 -6 -7 -67 48 -62 57 8 11 51 -17 59 -38z m621 15 c-8 -36 -33 -70 -46 -62 -10 6 31 94 44 94 5 0 5 -15 2 -32z m358 8 c15 -22 13 -36 -4 -36 -4 0 -12 14 -18 30 -12 36 1 39 22 6z m37 15 c0 -17 -18 -21 -24 -6 -3 9 0 15 9 15 8 0 15 -4 15 -9z m2727 -16 c6 -14 8 -25 4 -25 -4 0 -13 11 -19 25 -6 14 -8 25 -4 25 4 0 12 -11 19 -25z m-3567 -24 c7 -24 6 -31 -3 -28 -7 2 -13 19 -15 38 -4 40 5 35 18 -10z m1920 -17 c0 -11 -4 -12 -17 -5 -46 27 -48 28 -33 46 13 16 15 15 32 -5 10 -12 18 -29 18 -36z m3833 43 c4 3 7 -8 7 -26 l0 -32 -24 28 c-24 28 -25 53 -2 34 7 -6 16 -8 19 -4z m1235 -36 c-13 -14 -24 -28 -25 -30 -2 -2 -3 13 -3 35 0 29 3 35 10 24 9 -14 15 -7 11 14 -1 5 5 3 14 -4 14 -12 13 -16 -7 -39z m-6396 7 c-5 -5 -16 -6 -26 -2 -13 5 -14 9 -5 20 9 11 15 12 26 3 8 -7 10 -16 5 -21z m1912 24 c2 -4 1 -14 -4 -21 -10 -17 -31 -5 -23 14 6 16 19 20 27 7z m1029 -28 c15 -28 15 -33 0 -54 l-16 -23 -14 28 c-12 22 -12 32 -2 56 6 16 13 28 14 27 1 -2 10 -17 18 -34z m127 21 c7 -9 10 -18 7 -22 -8 -7 -37 15 -37 28 0 14 16 11 30 -6z m2394 -24 c-8 -9 -22 12 -17 26 6 15 7 14 13 -3 4 -10 6 -21 4 -23z m731 22 c-2 -10 -4 -20 -4 -23 -1 -3 -5 2 -11 10 -6 9 -5 17 3 22 16 10 16 10 12 -9z m-5040 -21 c-3 -8 0 -19 7 -24 10 -6 9 -8 -3 -8 -9 0 -22 6 -28 14 -15 18 -4 46 15 39 9 -3 13 -12 9 -21z m-861 10 c6 -11 -51 -68 -60 -60 -7 7 36 68 47 68 4 0 10 -4 13 -8z m566 -39 c-15 -32 -25 -16 -15 24 4 19 9 23 17 15 9 -9 8 -19 -2 -39z m1298 10 c18 -36 18 -40 2 -65 l-16 -27 -26 26 -27 26 22 39 c12 21 23 38 24 38 2 0 11 -17 21 -37z m195 -3 c-7 -8 -22 24 -16 34 4 5 10 1 13 -10 4 -10 6 -21 3 -24z m2791 2 c34 -37 24 -42 -18 -8 -17 14 -26 29 -21 36 4 6 8 10 9 8 0 -2 14 -18 30 -36z m-4581 -3 c-10 -16 -28 -39 -40 -51 -21 -20 -21 -20 -32 0 -8 15 -6 23 8 36 10 9 25 14 34 10 10 -3 20 2 27 15 6 12 13 21 16 21 3 0 -3 -14 -13 -31z m-1619 -14 c-7 -18 -8 -18 -14 1 -9 23 -1 39 11 27 6 -6 6 -18 3 -28z m286 -25 c8 -16 6 -26 -12 -50 -12 -16 -27 -30 -33 -30 -33 0 -72 87 -54 121 9 19 11 19 49 -1 22 -11 44 -29 50 -40z m120 40 c0 -13 -5 -18 -15 -14 -12 5 -13 10 -4 20 15 19 19 18 19 -6z m1713 -23 c-16 -30 -18 -31 -21 -9 -4 25 15 55 29 46 5 -3 1 -20 -8 -37z m287 -24 c0 -22 -23 -64 -33 -60 -6 2 -22 18 -36 37 l-26 35 29 -23 c16 -12 33 -22 37 -22 20 0 6 17 -36 43 -44 28 -51 37 -39 50 10 9 104 -46 104 -60z m1465 41 c16 -25 16 -27 -11 -65 -21 -31 -30 -37 -40 -28 -21 17 -17 32 6 26 23 -6 28 11 6 19 -13 5 -13 11 1 40 9 19 18 34 19 34 1 0 9 -12 19 -26z m2543 -15 c-3 -20 -5 -19 -9 9 -3 20 -2 29 4 23 5 -5 7 -19 5 -32z m-7268 23 c0 -4 -19 -26 -42 -47 l-41 -40 33 48 c31 43 50 59 50 39z m695 -54 c-18 -55 -50 -124 -68 -146 -8 -10 -13 -8 -24 8 -13 18 -12 25 9 59 36 60 93 140 96 136 2 -2 -4 -28 -13 -57z m890 21 c4 -16 2 -30 -5 -34 -19 -12 -31 9 -24 44 7 35 19 31 29 -10z m2633 16 c9 -20 9 -25 -3 -25 -16 0 -38 34 -28 44 12 11 20 6 31 -19z m307 9 c14 -9 21 -22 18 -30 -8 -21 -16 -17 -35 16 -19 34 -17 36 17 14z m-4275 -2 c0 -13 -12 -22 -22 -16 -10 6 -1 24 13 24 5 0 9 -4 9 -8z m374 -19 c-4 -16 -16 -48 -26 -73 -17 -38 -21 -42 -29 -27 -8 13 -2 30 23 72 18 30 34 55 36 55 1 0 -1 -12 -4 -27z m1250 18 c3 -4 -4 -17 -16 -27 -12 -11 -19 -14 -16 -9 3 6 8 18 11 28 7 19 13 21 21 8z m656 -45 c-10 -29 -24 -66 -32 -81 -12 -22 -16 -24 -26 -12 -10 12 -5 27 30 81 23 36 43 66 44 66 2 0 -5 -24 -16 -54z m2405 6 c-8 -8 -25 17 -25 38 0 9 6 6 16 -8 9 -13 13 -26 9 -30z m3400 18 c-16 -16 -31 -27 -34 -24 -5 5 48 54 58 54 3 0 -8 -13 -24 -30z m-7833 -10 c3 -16 1 -30 -4 -30 -4 0 -8 14 -8 30 0 17 2 30 4 30 2 0 6 -13 8 -30z m819 20 c22 -12 24 -37 7 -75 -13 -29 -23 -32 -32 -9 -10 25 -7 34 9 28 18 -7 20 12 3 23 -12 8 -21 43 -11 43 2 0 13 -5 24 -10z m1278 -62 c-27 -68 -58 -128 -67 -128 -4 0 -12 8 -18 18 -13 20 -4 40 56 129 41 61 57 51 29 -19z m-1704 25 c3 -13 2 -23 -3 -23 -17 0 -33 27 -26 44 8 20 19 11 29 -21z m560 -20 c10 -24 11 -41 5 -58 -12 -31 -18 -31 -29 -2 -22 58 -23 67 -7 61 9 -4 16 -1 16 6 0 6 -9 14 -19 17 -12 3 -17 11 -14 19 8 20 30 0 48 -43z m1585 -2 c-5 -9 -16 -25 -24 -36 -16 -20 -16 -20 -36 3 -19 23 -19 23 3 57 l22 34 22 -21 c16 -15 20 -25 13 -37z m1128 37 c4 -15 12 -19 41 -17 42 3 43 -8 4 -60 l-26 -33 -33 58 c-18 32 -31 61 -29 64 9 14 38 6 43 -12z m342 -50 c0 -16 -11 -7 -30 25 -28 46 -25 57 5 17 14 -19 25 -38 25 -42z m2550 31 c0 -6 -13 -1 -30 11 -16 12 -30 23 -30 26 0 2 14 -2 30 -11 17 -9 30 -20 30 -26z m-7066 -2 c-46 -52 -93 -89 -104 -82 -8 5 112 112 128 115 2 0 -9 -15 -24 -33z m1940 11 c-15 -50 -23 -64 -53 -93 l-31 -29 -22 22 -22 21 30 23 c16 13 42 35 59 50 37 34 49 35 39 6z m556 19 c0 -2 -15 -16 -32 -33 l-33 -29 29 33 c28 30 36 37 36 29z m875 -27 c22 -43 18 -49 -9 -15 -13 16 -22 33 -19 37 7 13 12 9 28 -22z m485 -2 c0 -4 -5 -10 -11 -14 -12 -7 -29 12 -29 34 0 10 4 10 20 0 11 -7 20 -16 20 -20z m4344 16 c10 -27 7 -33 -24 -49 l-31 -16 7 28 c12 49 36 68 48 37z m-4984 -85 c0 -4 -6 -12 -14 -18 -11 -10 -22 -6 -50 20 -40 35 -48 65 -16 56 21 -5 26 2 13 19 -5 5 9 -9 29 -31 20 -22 37 -43 38 -46z m1695 70 c5 -15 1 -28 -13 -41 l-20 -20 -12 22 c-9 18 -8 25 6 41 22 24 31 24 39 -2z m3465 7 c0 -17 -38 -66 -51 -66 -13 0 -1 40 19 63 18 20 32 22 32 3z m1830 -1 c7 -9 10 -18 7 -22 -8 -7 -37 15 -37 28 0 14 16 11 30 -6z m-10355 -74 c-3 -2 -6 -2 -7 0 -2 2 -19 22 -38 44 l-35 40 42 -39 c24 -22 40 -42 38 -45z m4460 58 c10 -30 0 -33 -13 -4 -6 14 -7 25 -2 25 5 0 12 -9 15 -21z m863 -5 c-7 -15 -14 -21 -16 -15 -2 7 2 18 8 26 18 22 21 18 8 -11z m1875 -29 c-3 -8 -8 -15 -11 -15 -14 0 -42 35 -42 52 0 19 1 19 30 -2 18 -13 27 -26 23 -35z m154 43 c12 -15 23 -58 16 -58 -3 0 -18 7 -33 17 -24 14 -26 19 -17 35 14 21 21 22 34 6z m2642 -40 c15 -25 18 -39 11 -43 -14 -9 -14 -9 -34 50 -17 53 -12 51 23 -7z m-9805 28 c-7 -18 -110 -106 -117 -100 -4 5 109 111 120 113 1 1 0 -5 -3 -13z m1195 0 c10 -12 7 -23 -12 -53 -54 -86 -87 -76 -40 13 30 58 34 61 52 40z m1485 -26 c-14 -14 -39 14 -29 31 5 8 12 6 23 -5 11 -11 13 -19 6 -26z m1896 24 c0 -8 -5 -24 -11 -35 -10 -20 -11 -20 -24 -2 -11 15 -11 21 2 36 20 21 33 22 33 1z m169 -6 c12 -20 11 -24 -18 -50 -35 -32 -49 -35 -57 -13 -6 15 39 85 54 85 4 0 13 -10 21 -22z m-3998 -39 c-28 -38 -22 -48 9 -14 l23 25 18 -38 17 -37 -32 -27 c-17 -14 -28 -30 -23 -34 4 -4 18 3 32 16 14 13 27 21 30 19 19 -20 85 -133 85 -147 0 -9 -14 -29 -32 -44 -18 -14 -30 -30 -25 -34 4 -4 18 3 31 15 l24 23 4 -55 3 -55 -40 29 c-59 43 -245 210 -245 219 0 14 40 80 84 138 27 37 42 50 49 43 8 -8 4 -20 -12 -42z m1595 2 c-4 -6 -16 -16 -27 -21 -16 -9 -21 -7 -28 12 -6 17 -4 28 7 41 15 17 17 17 35 -2 11 -10 16 -24 13 -30z m1408 -13 c-21 -21 -31 -25 -41 -17 -19 16 -16 36 8 60 20 20 21 20 40 3 19 -17 19 -18 -7 -46z m356 17 c17 -24 29 -50 28 -57 -2 -6 2 -12 9 -13 6 0 22 -13 35 -30 l23 -30 -30 22 c-16 12 -52 41 -79 65 -44 40 -48 46 -37 66 6 12 14 22 16 22 2 0 18 -20 35 -45z m-3987 18 c-9 -27 -24 -43 -34 -38 -4 3 1 17 13 30 26 30 29 31 21 8z m1457 9 c0 -13 -12 -22 -22 -16 -10 6 -1 24 13 24 5 0 9 -4 9 -8z m113 -12 c-5 -19 -23 -29 -23 -12 0 7 20 32 26 32 1 0 0 -9 -3 -20z m355 1 c-2 -4 -23 -25 -47 -47 l-44 -39 18 35 c19 38 55 71 68 63 4 -3 7 -8 5 -12z m82 12 c0 -5 -7 -16 -14 -26 -11 -14 -15 -15 -19 -4 -3 8 0 20 6 26 13 13 27 15 27 4z m1863 -56 c-4 -6 -16 1 -30 17 -33 39 -28 55 7 21 16 -15 26 -33 23 -38z m5770 11 c32 -44 32 -44 7 -58 -19 -10 -23 -6 -40 34 -11 24 -17 52 -14 61 7 18 7 18 47 -37z m-5514 13 c11 -26 10 -31 -18 -58 l-30 -31 -14 22 c-13 19 -12 25 12 58 14 21 29 38 32 38 4 0 12 -13 18 -29z m3925 -17 c-41 -28 -40 -28 -47 -10 -8 21 53 59 70 44 10 -8 4 -16 -23 -34z m-3284 11 c-13 -14 -28 -25 -34 -25 -6 1 3 12 19 25 39 32 45 32 15 0z m-3881 -60 c0 -5 -8 6 -19 25 -11 19 -19 40 -19 45 0 6 8 -6 19 -25 11 -19 19 -39 19 -45z m538 64 c9 -9 6 -20 -10 -44 l-22 -33 -12 30 c-12 27 -11 32 4 44 22 17 26 17 40 3z m1576 -71 c-14 -15 -14 -18 -2 -18 8 0 20 5 27 12 9 9 12 9 12 1 0 -18 -109 -93 -134 -93 -3 0 -12 13 -21 30 -14 28 -14 31 22 88 l38 59 37 -31 c34 -29 35 -32 21 -48z m344 61 c2 -8 -6 -25 -16 -38 l-19 -24 -12 22 c-10 19 -9 26 6 42 19 21 38 20 41 -2z m502 -44 c0 -5 -13 -25 -29 -44 l-29 -34 -20 24 c-11 13 -20 28 -21 32 0 12 20 49 38 70 15 17 17 16 38 -10 13 -15 23 -32 23 -38z m440 -11 c-6 -7 -8 -18 -4 -24 3 -5 4 -10 1 -10 -14 0 -57 83 -51 98 6 14 12 11 36 -17 21 -26 26 -38 18 -47z m206 36 c-24 -27 -39 -15 -18 16 11 17 19 22 26 15 7 -7 5 -17 -8 -31z m950 -10 c-13 -25 -19 -29 -31 -20 -12 11 -11 17 7 42 28 39 47 23 24 -22z m1579 38 c20 -9 23 -14 15 -24 -9 -11 -16 -11 -40 3 -44 26 -24 44 25 21z m2195 -33 c0 -5 -6 -1 -14 9 -8 11 -15 24 -15 30 0 5 7 1 15 -10 8 -10 14 -23 14 -29z m304 3 c-3 -6 -12 -3 -20 5 -9 9 -12 20 -8 28 6 9 11 8 21 -6 7 -10 11 -22 7 -27z m-9663 13 c-5 -11 -23 -28 -40 -37 -16 -10 -26 -22 -23 -27 3 -6 1 -7 -6 -3 -8 5 2 20 31 46 50 45 52 47 38 21z m1377 -11 c11 -29 10 -29 -10 -19 -29 16 -28 14 -21 33 9 24 18 20 31 -14z m1907 -2 c-3 -4 -12 -8 -20 -8 -12 0 -13 4 -3 21 9 17 13 19 19 8 5 -7 6 -17 4 -21z m1536 2 c0 -4 -17 -19 -37 -33 -29 -21 -40 -24 -51 -15 -11 10 -7 17 25 44 27 23 41 29 51 22 6 -6 12 -14 12 -18z m106 -5 c-9 -14 -21 -25 -27 -25 -6 0 0 13 13 29 28 34 37 32 14 -4z m2064 14 c7 -11 9 -23 6 -26 -8 -9 -36 17 -36 33 0 21 18 17 30 -7z m1386 -14 c-15 -23 -36 -34 -36 -18 0 10 43 54 48 48 3 -2 -3 -16 -12 -30z m1642 -27 l-11 -30 -25 26 c-25 25 -25 26 -7 46 17 19 20 19 36 4 14 -13 16 -21 7 -46z m-9963 32 c-20 -22 -14 -26 17 -9 35 19 11 -7 -43 -46 l-52 -37 23 34 c27 38 61 78 68 78 3 0 -3 -9 -13 -20z m214 -19 c-27 -23 -35 -25 -43 -12 -8 12 18 32 35 29 8 -2 13 4 11 12 -3 12 -1 12 9 3 10 -10 7 -16 -12 -32z m1820 -13 c-14 -25 -156 -168 -195 -196 -26 -17 -34 -19 -42 -9 -17 20 86 152 161 209 54 40 64 44 74 31 9 -11 9 -21 2 -35z m91 37 c-13 -15 -2 -21 16 -7 5 4 -1 -3 -14 -15 -40 -39 -58 -27 -20 14 24 25 38 32 18 8z m755 -15 c9 -16 13 -30 11 -30 -3 0 -12 14 -21 30 -9 17 -13 30 -11 30 3 0 12 -13 21 -30z m5101 -2 c-20 -11 -21 -29 -1 -22 19 8 18 -1 -4 -51 -17 -39 -18 -39 -30 -17 -9 18 -10 31 -1 60 13 41 42 71 49 51 2 -6 -4 -16 -13 -21z m194 0 c-11 -4 -20 -12 -20 -18 0 -13 6 -13 31 0 13 8 19 7 19 0 0 -7 21 -43 46 -82 l46 -71 -18 -38 c-9 -21 -25 -46 -35 -55 -17 -15 -20 -12 -65 48 -46 62 -128 217 -119 226 2 3 25 -17 49 -44 25 -27 45 -43 46 -35 0 8 -9 25 -21 37 l-20 21 33 21 c24 15 34 18 40 9 4 -7 -1 -15 -12 -19z m366 -6 c-10 -10 -29 15 -21 28 6 9 10 8 17 -4 6 -10 7 -20 4 -24z m-6318 3 c6 -14 9 -25 7 -25 -10 0 -43 39 -37 44 10 11 19 6 30 -19z m107 15 c26 22 22 -6 -5 -39 -28 -33 -28 -33 -40 -11 -10 18 -8 25 6 42 11 11 20 15 22 8 3 -8 8 -8 17 0z m2979 1 c3 -4 -5 -18 -18 -30 -21 -20 -24 -20 -30 -5 -11 29 32 61 48 35z m1785 -28 c2 -1 -2 -9 -9 -18 -18 -21 -4 -32 17 -13 10 9 24 13 31 11 6 -3 12 0 12 6 0 6 -5 11 -11 11 -8 0 -8 5 1 15 18 22 30 18 30 -7 0 -41 -121 -249 -157 -271 -13 -8 -38 15 -56 50 -22 42 -21 48 7 86 13 18 35 53 48 79 19 35 28 44 39 37 18 -11 29 -11 29 0 0 5 -9 12 -19 16 -13 4 -18 12 -14 21 5 13 8 12 27 -3 11 -10 23 -19 25 -20z m189 -27 c11 -29 11 -40 -1 -62 l-14 -27 -17 48 c-19 59 -19 56 -1 49 8 -4 15 -2 15 4 0 5 -7 12 -15 16 -8 3 -15 13 -15 22 0 16 1 16 18 1 10 -9 23 -32 30 -51z m-6108 4 c-10 -25 -15 -27 -30 -18 -17 11 -17 13 8 37 31 30 39 23 22 -19z m583 13 c-15 -5 -17 -23 -4 -23 5 0 24 12 43 27 32 26 32 26 11 2 -31 -34 -29 -45 4 -23 l28 17 -19 -29 c-37 -57 -71 -104 -76 -104 -3 0 -16 20 -29 44 l-24 43 23 42 c22 38 25 40 39 25 12 -12 13 -18 4 -21z m127 -2 c-11 -22 -25 -43 -32 -47 -8 -5 -7 1 3 16 9 14 21 35 28 48 6 12 14 22 17 22 2 0 -5 -18 -16 -39z m1718 13 c-7 -15 -14 -21 -16 -15 -5 16 5 41 17 41 7 0 6 -10 -1 -26z m1020 -21 c-14 -14 -20 -14 -33 -3 -14 12 -14 15 2 32 15 17 18 17 32 3 14 -13 14 -17 -1 -32z m1018 13 c-14 -19 -21 -36 -16 -38 6 -2 -11 -27 -36 -56 -26 -29 -44 -56 -40 -59 3 -4 33 8 67 25 34 17 56 25 49 17 -7 -9 -8 -15 -2 -15 5 0 15 7 22 15 7 8 18 15 26 15 19 0 28 -20 15 -33 -16 -16 -13 -26 7 -21 10 3 22 -4 30 -16 12 -19 9 -27 -28 -76 -22 -30 -44 -54 -48 -54 -4 0 -45 35 -91 78 l-83 77 22 37 c12 21 26 35 31 32 5 -3 8 5 6 18 -1 13 3 22 9 21 6 -1 26 14 44 32 43 44 50 45 16 1z m-4196 -63 c-13 -19 -16 -20 -27 -6 -12 15 -11 63 2 83 4 7 14 -3 24 -22 15 -30 15 -35 1 -55z m132 59 c-6 -2 -12 -11 -12 -19 0 -13 3 -13 15 -3 12 10 15 10 15 -1 0 -13 -46 -89 -54 -89 -2 0 -13 15 -24 34 l-20 34 25 36 c23 31 28 34 47 24 13 -7 16 -13 8 -16z m1892 16 c-21 -37 -47 -69 -51 -64 -6 6 44 76 53 76 3 0 2 -6 -2 -12z m259 -8 c-7 -25 15 -27 33 -2 9 13 16 14 24 6 15 -15 -4 -56 -59 -132 l-38 -53 -38 56 c-35 54 -36 57 -19 70 11 7 36 27 58 44 46 37 46 37 39 11z m619 -47 c5 -6 5 -14 0 -17 -11 -7 -63 64 -56 76 3 5 15 -4 27 -19 11 -15 24 -33 29 -40z m2564 49 c9 -14 8 -23 -6 -40 -18 -22 -19 -22 -25 -2 -7 21 2 60 13 60 4 0 12 -8 18 -18z m65 1 c-5 -10 -26 -36 -46 -58 -41 -45 -35 -32 15 33 35 44 47 54 31 25z m1379 -3 c0 -5 -5 -21 -10 -36 -10 -26 -11 -26 -24 -8 -12 15 -11 21 3 40 15 21 31 23 31 4z m466 3 c15 -20 19 -63 6 -63 -10 0 -32 45 -32 65 0 20 10 19 26 -2z m837 -32 c11 -19 14 -32 7 -36 -16 -10 -12 -28 5 -21 8 3 21 -4 30 -17 14 -20 12 -24 -38 -75 -28 -29 -68 -67 -88 -82 l-36 -29 -41 55 c-36 49 -40 58 -30 80 8 17 17 23 30 18 10 -3 18 -1 18 5 0 6 -4 11 -10 11 -12 0 -13 10 0 30 8 12 13 11 33 -8 28 -26 41 -28 33 -4 -4 12 -1 11 13 -5 10 -12 21 -19 25 -16 3 4 17 -4 31 -17 45 -42 36 -15 -15 49 -74 92 -80 108 -24 66 53 -41 71 -39 31 3 -15 16 -24 31 -21 35 9 9 25 -5 47 -42z m151 25 c-3 -9 -10 -13 -16 -10 -5 3 -4 12 3 20 15 18 22 13 13 -10z m-9536 -65 c2 -41 -1 -78 -5 -82 -5 -5 -25 19 -46 54 l-36 62 27 22 c46 38 57 27 60 -56z m583 62 c9 -10 16 -34 17 -53 l2 -35 -24 45 c-14 25 -25 48 -26 53 0 13 17 7 31 -10z m1547 -100 c-23 -24 -45 -43 -48 -43 -3 0 -16 21 -29 46 l-22 47 32 33 33 34 38 -37 38 -37 -42 -43z m410 69 l43 -35 -21 -22 c-32 -34 -24 -52 10 -20 17 16 30 24 30 19 0 -6 -13 -22 -28 -37 l-28 -27 -37 75 c-54 109 -51 113 31 47z m1403 5 l-34 -32 28 38 c15 21 30 35 33 32 3 -3 -9 -20 -27 -38z m589 28 c7 -9 11 -17 9 -18 -2 -2 -20 -15 -40 -30 -35 -25 -37 -25 -53 -8 -15 17 -14 20 21 44 45 31 47 31 63 12z m185 -2 c0 -16 -75 -74 -86 -67 -5 3 1 18 13 33 16 19 27 25 35 19 7 -5 14 -5 18 2 3 5 1 10 -5 10 -6 0 -8 5 -5 11 8 12 30 7 30 -8z m1445 -3 c0 -19 -11 -26 -23 -14 -8 8 3 34 14 34 5 0 9 -9 9 -20z m-6576 -48 c18 -20 18 -22 -4 -52 -25 -35 -29 -34 -68 23 -26 39 -27 45 -14 65 14 21 15 22 41 3 14 -10 34 -28 45 -39z m633 26 l33 -32 -27 -28 c-32 -34 -49 -35 -57 -5 -10 39 -7 97 6 97 7 0 27 -14 45 -32z m2873 11 c9 -16 8 -26 -6 -46 l-17 -26 -14 27 c-13 25 -13 30 3 47 21 24 21 24 34 -2z m6740 -13 c-7 -7 -15 -5 -25 7 -8 9 -10 12 -3 7 20 -16 31 -11 17 8 -13 15 -12 16 4 3 12 -10 15 -17 7 -25z m-9027 -1 c-4 -11 -1 -13 12 -9 9 4 27 1 40 -6 l24 -13 -26 -38 c-29 -43 -43 -42 -66 7 -20 41 -21 56 -5 72 14 14 29 6 21 -13z m227 -9 c14 -17 35 -22 25 -6 -3 6 1 10 9 10 12 0 7 -13 -19 -49 -52 -72 -59 -76 -79 -46 -15 23 -15 24 1 19 14 -4 13 -1 -4 14 -28 25 -28 27 -2 63 21 31 40 29 69 -5z m7330 -10 c-1 -20 -2 -20 -15 4 -19 33 -19 46 0 30 8 -7 15 -22 15 -34z m556 29 c11 -29 -2 -37 -19 -11 -15 23 -16 26 -2 26 9 0 18 -7 21 -15z m744 -40 c0 -8 -4 -16 -8 -19 -10 -6 -63 59 -55 68 9 8 63 -33 63 -49z m93 49 c3 -4 -3 -14 -15 -24 -13 -10 -17 -19 -11 -23 6 -4 16 0 23 8 15 18 32 19 48 3 9 -9 7 -17 -10 -35 l-22 -23 -27 26 c-24 23 -26 30 -17 50 11 24 20 29 31 18z m-9973 -59 c-30 -29 -37 -32 -52 -21 -15 11 -13 16 24 44 56 43 77 26 28 -23z m3194 43 c-20 -32 -94 -125 -117 -146 -20 -19 -29 -22 -44 -13 -45 26 -45 26 4 80 45 50 108 99 74 58 -19 -24 -2 -20 39 8 39 27 55 31 44 13z m266 -4 c0 -10 -53 -84 -61 -84 -4 0 -11 9 -14 20 -9 29 29 80 55 73 11 -3 20 -7 20 -9z m915 -70 l-28 -37 -24 27 c-13 15 -20 32 -17 38 4 6 16 -2 30 -18 16 -20 23 -24 24 -13 0 9 -9 24 -20 34 -19 17 -19 19 -3 37 16 18 17 18 42 -6 l24 -25 -28 -37z m125 76 c11 -6 17 -17 14 -25 -4 -8 -1 -15 5 -15 6 0 11 5 11 11 0 8 5 7 16 -2 10 -8 12 -15 5 -17 -6 -2 -11 -8 -11 -14 0 -6 7 -7 16 -4 16 6 54 -9 54 -22 0 -4 -15 -15 -32 -25 -32 -19 -33 -19 -48 2 -8 12 -29 40 -47 63 -40 52 -32 74 17 48z m104 -20 c-6 -6 -15 -6 -24 0 -13 9 -13 11 0 20 18 11 39 -5 24 -20z m569 10 c3 -11 2 -20 -3 -20 -12 0 -31 26 -23 33 11 12 21 7 26 -13z m3772 -10 c-5 -8 -11 -8 -17 -2 -6 6 -7 16 -3 22 5 8 11 8 17 2 6 -6 7 -16 3 -22z m-3975 13 c0 -8 -29 -52 -90 -136 -19 -27 -64 -70 -98 -97 l-64 -47 -26 24 -26 24 49 49 c32 33 52 46 60 40 6 -5 23 -13 38 -19 41 -16 33 5 -10 28 -21 11 -31 20 -23 21 8 0 26 9 40 20 25 19 25 19 47 -2 24 -22 31 -11 13 21 -7 15 -1 24 33 49 43 32 57 38 57 25z m138 3 c-2 -1 -10 -7 -19 -14 -14 -10 -18 -10 -22 1 -4 10 2 15 19 15 14 0 24 -1 22 -2z m176 -32 c-31 -40 -40 -42 -50 -12 -8 25 11 42 49 44 l26 2 -25 -34z m1286 33 c0 -2 -10 -12 -21 -23 -22 -19 -22 -19 -10 4 10 18 31 31 31 19z m2174 -81 c-3 -9 -10 -16 -15 -16 -12 0 -51 79 -44 90 10 15 66 -56 59 -74z m970 53 c-13 -14 -20 -16 -25 -7 -4 7 0 17 9 24 25 18 36 5 16 -17z m-9453 -26 c-9 -15 -10 -12 -10 17 0 29 1 32 10 18 7 -12 7 -24 0 -35z m637 -22 c-35 -47 -41 -52 -50 -39 -4 7 -8 35 -8 61 l0 48 35 -27 c30 -22 33 -29 23 -43z m5539 43 c-9 -9 -28 6 -21 18 4 6 10 6 17 -1 6 -6 8 -13 4 -17z m1381 -27 c-9 -25 -12 -27 -25 -14 -9 9 -12 23 -8 40 6 22 10 24 25 15 15 -10 16 -16 8 -41z m1600 28 c-9 -19 -14 -22 -25 -14 -11 10 -10 14 4 25 27 20 34 17 21 -11z m433 -72 c-7 -15 -18 -37 -27 -48 -14 -18 -16 -18 -57 23 l-43 42 35 40 36 39 34 -34 c31 -31 33 -36 22 -62z m-4710 76 c19 -10 19 -10 -3 -28 -21 -17 -23 -17 -34 -2 -9 11 -9 20 -2 28 13 16 14 16 39 2z m195 -43 c-3 -12 -13 -40 -22 -61 l-16 -40 -20 38 c-21 41 -20 42 26 95 17 20 21 21 29 7 5 -9 6 -27 3 -39z m2007 37 c2 -10 -3 -31 -11 -47 l-14 -30 -13 30 c-10 24 -10 32 3 47 8 9 19 17 23 17 4 0 9 -8 12 -17z m674 -36 c17 -29 55 -78 84 -110 56 -63 56 -63 -10 -99 -22 -12 -26 -10 -58 27 -20 22 -51 63 -69 90 -32 47 -33 50 -14 53 21 4 27 18 10 24 -10 3 9 68 20 68 3 0 19 -24 37 -53z m-7869 -12 c39 -49 42 -56 31 -77 -8 -13 -13 -26 -14 -30 0 -4 -10 -14 -22 -23 -21 -15 -22 -13 -52 47 -17 33 -31 75 -31 91 0 29 0 30 20 12 21 -19 42 -13 22 7 -7 7 -12 16 -12 20 0 18 17 4 58 -47z m4506 40 c15 -11 16 -15 5 -15 -8 0 -24 7 -35 15 -14 11 -15 14 -4 14 8 0 24 -6 34 -14z m91 -19 c-16 -21 -32 -33 -41 -29 -8 3 -14 8 -14 12 0 6 68 50 78 51 2 0 -9 -15 -23 -34z m2413 2 c8 -21 8 -36 2 -42 -16 -16 -12 -25 10 -19 11 3 20 2 20 -2 0 -12 -86 -128 -117 -158 l-30 -28 -29 22 c-16 13 -33 26 -38 30 -5 4 14 33 42 64 28 31 66 80 84 110 18 30 35 55 38 55 3 0 11 -14 18 -32z m1948 1 c4 -8 1 -8 -14 0 -12 6 -24 16 -28 22 -4 8 -1 8 14 0 12 -6 24 -16 28 -22z m-7806 -74 c-46 -46 -51 -48 -66 -33 -15 15 -13 20 32 72 l48 57 18 -23 c17 -23 16 -24 -32 -73z m254 25 c-15 -22 -28 -40 -30 -40 -2 0 -8 8 -13 18 -14 26 47 103 61 78 6 -11 1 -28 -18 -56z m1695 44 c14 -31 12 -34 -71 -105 -48 -42 -61 -49 -73 -39 -12 10 -5 23 50 83 36 39 65 75 65 79 0 18 18 6 29 -18z m240 3 c-2 -1 -22 -16 -44 -32 l-40 -30 35 42 c22 26 39 38 44 33 5 -5 8 -11 5 -13z m699 -12 c-2 -10 -7 -12 -17 -5 -13 7 -13 11 -1 25 15 18 24 8 18 -20z m1386 10 c-9 -14 -21 -25 -27 -25 -6 0 0 11 13 25 13 14 25 25 27 25 2 0 -4 -11 -13 -25z m386 -11 c0 -16 -31 -27 -43 -15 -7 7 -4 17 8 31 14 16 20 17 27 8 4 -7 8 -18 8 -24z m1650 16 c6 -11 9 -20 7 -20 -2 0 -12 9 -22 20 -10 11 -13 20 -7 20 6 0 16 -9 22 -20z m939 3 c15 -27 -5 -56 -29 -43 -17 9 -18 14 -8 35 13 29 23 31 37 8z m655 -27 c-8 -20 -23 -17 -38 7 -8 13 -7 20 4 27 20 12 43 -11 34 -34z m845 1 c-13 -28 -24 -34 -34 -17 -8 13 28 61 38 51 4 -4 3 -20 -4 -34z m-10174 24 c-3 -5 -24 -24 -48 -42 l-42 -33 30 34 c17 19 35 38 40 42 14 11 27 10 20 -1z m1575 -22 l22 -30 -23 -25 -23 -25 -23 38 c-21 34 -21 39 -6 55 22 24 28 23 53 -13z m212 -25 c11 -13 15 -24 10 -28 -11 -7 -52 53 -52 75 0 8 5 6 12 -6 6 -11 19 -30 30 -41z m109 29 c-47 -63 -58 -75 -64 -66 -4 6 11 29 32 52 43 46 63 55 32 14z m1560 3 c-13 -14 -18 -26 -12 -30 5 -4 16 3 24 14 14 21 14 21 30 -3 15 -23 14 -26 -7 -46 l-24 -22 -22 36 c-21 34 -22 37 -5 55 10 11 23 20 28 20 6 0 0 -11 -12 -24z m3277 0 c9 -20 7 -27 -6 -40 -16 -14 -19 -13 -30 4 -10 16 -10 24 0 40 16 26 22 25 36 -4z m-6280 -25 c17 -20 15 -60 -3 -67 -8 -4 -15 -11 -15 -16 0 -6 7 -8 15 -4 19 7 20 -43 4 -165 -15 -113 -21 -122 -48 -67 -16 34 -21 63 -21 122 0 49 4 75 10 71 6 -3 10 -2 10 4 0 5 -4 12 -9 15 -4 3 -11 26 -15 51 -4 36 -2 52 12 70 18 24 30 21 60 -14z m151 7 c-44 -64 -67 -88 -72 -75 -4 12 70 104 86 106 5 1 -2 -14 -14 -31z m1914 2 c-28 -49 -61 -86 -68 -78 -6 6 71 108 82 108 2 0 -4 -14 -14 -30z m606 3 c-13 -16 -24 -29 -24 -30 0 -1 -6 2 -14 6 -9 6 -4 14 21 29 44 27 46 27 17 -5z m2092 11 c10 -13 10 -17 -2 -24 -13 -9 -26 6 -28 33 -2 12 16 8 30 -9z m2628 -26 c-15 -30 -23 -37 -29 -27 -11 16 -2 32 12 23 7 -5 9 -2 5 8 -3 9 0 21 6 27 23 23 27 9 6 -31z m155 17 c15 -23 15 -28 1 -56 l-16 -30 -18 23 c-17 21 -18 25 -3 55 9 18 17 33 18 33 1 0 9 -11 18 -25z m-7943 4 c24 -12 17 -23 -40 -69 -36 -27 -37 -28 -60 -11 l-23 18 48 36 c58 42 51 40 75 26z m5838 7 c-2 -2 -15 -9 -29 -16 -23 -12 -24 -12 -11 3 7 10 20 17 29 17 8 0 13 -2 11 -4z m451 -4 c0 -13 -12 -22 -22 -16 -10 6 -1 24 13 24 5 0 9 -4 9 -8z m185 -2 c4 -6 1 -18 -6 -26 -10 -12 -14 -12 -20 -2 -5 7 -9 19 -9 26 0 15 26 16 35 2z m887 -53 c1 -1 -5 -13 -14 -26 l-16 -23 -15 29 c-13 25 -13 32 0 57 l15 29 14 -31 c7 -18 14 -33 16 -35z m231 42 c-4 -13 -9 -17 -15 -11 -11 11 -3 32 12 32 4 0 6 -9 3 -21z m924 -9 c-12 -31 -21 -37 -32 -19 -7 10 21 49 36 49 4 0 2 -13 -4 -30z m389 14 c-3 -9 -6 -18 -6 -20 0 -3 -4 -3 -10 1 -11 7 -2 35 12 35 6 0 7 -7 4 -16z m202 -32 c-11 -13 -10 -14 9 -8 27 9 37 -7 23 -35 l-12 -21 -25 24 c-37 34 -47 57 -32 74 10 13 14 12 30 -2 15 -14 17 -20 7 -32z m-2344 19 c17 -18 15 -41 -3 -41 -7 0 -31 43 -31 55 0 11 18 3 34 -14z m895 -36 c0 -5 -8 -21 -18 -34 l-19 -24 -12 23 c-10 18 -9 28 6 56 18 34 18 34 31 11 7 -12 12 -26 12 -32z m-6609 -27 c0 -4 -9 -13 -20 -20 -24 -15 -27 -33 -4 -24 14 5 15 4 4 -9 -18 -22 2 -19 27 4 20 19 21 19 54 -15 28 -29 31 -36 19 -45 -33 -21 -60 -21 -95 1 -32 20 -95 97 -95 116 0 4 12 21 27 36 l27 28 27 -33 c16 -17 28 -35 29 -39z m140 55 c0 -31 -17 -50 -31 -36 -10 10 -9 17 6 33 22 24 25 25 25 3z m3553 -54 c-19 -27 -38 -49 -42 -49 -4 0 -21 15 -39 33 l-32 33 45 22 c25 12 45 17 45 12 0 -6 5 -10 11 -10 6 0 9 7 6 15 -5 12 -2 12 18 3 l23 -10 -35 -49z m3107 34 c0 -8 -8 -28 -17 -44 -16 -26 -18 -27 -35 -13 -16 16 -16 18 5 54 16 29 25 36 34 28 7 -6 13 -17 13 -25z m1565 11 l17 -26 -31 23 c-35 26 -37 29 -17 29 7 0 21 -12 31 -26z m-5888 -14 c-10 -14 -17 -18 -22 -10 -4 6 1 17 11 25 25 18 30 11 11 -15z m2353 21 c0 -5 -12 -16 -26 -26 l-27 -17 19 26 c19 26 34 33 34 17z m298 1 c9 -6 4 -16 -18 -37 l-30 -29 0 25 c0 23 16 49 30 49 3 0 11 -4 18 -8z m372 -62 c-20 -28 -24 -30 -38 -16 -13 13 -12 18 14 49 26 30 30 32 38 16 6 -12 2 -27 -14 -49z m914 39 c16 -26 16 -35 5 -55 -16 -32 -23 -30 -46 9 -18 29 -18 35 -5 55 19 29 24 28 46 -9z m1126 -3 c0 -6 -11 -24 -24 -41 -23 -29 -23 -29 -30 -7 -10 30 23 86 41 70 7 -6 13 -16 13 -22z m15 -53 c-25 -43 -55 -89 -66 -102 l-20 -25 -26 26 -26 26 23 36 c18 30 25 35 36 25 13 -10 11 -16 -12 -41 -21 -21 -24 -28 -11 -28 9 0 23 9 31 21 8 12 19 18 26 14 7 -4 10 -1 8 7 -3 15 72 131 80 124 2 -3 -17 -40 -43 -83z m-7370 8 c-13 -14 -15 -11 -15 29 l0 45 15 -29 c14 -27 14 -31 0 -45z m5005 41 c-1 -9 -16 -35 -35 -57 -33 -38 -34 -39 -53 -22 -19 18 -19 19 26 62 47 44 62 48 62 17z m2492 5 c24 -19 26 -24 14 -40 -13 -17 -15 -16 -35 12 -37 51 -25 67 21 28z m226 -20 c-9 -17 -12 -17 -24 -5 -8 8 -12 22 -8 31 5 13 9 14 24 5 15 -9 16 -16 8 -31z m902 -59 c1 -29 -51 26 -80 82 -7 14 7 4 33 -25 26 -27 46 -53 47 -57z m-3536 65 c-9 -36 -13 -40 -24 -23 -6 10 -4 21 7 32 22 24 25 23 17 -9z m333 -25 c21 -29 36 -59 35 -68 -2 -8 0 -12 4 -7 4 4 20 -5 36 -20 36 -35 50 -21 15 15 -21 21 -24 31 -15 40 9 9 17 3 36 -24 l24 -36 -23 -24 c-12 -13 -26 -24 -30 -24 -8 0 -88 117 -113 168 -24 46 -13 40 31 -20z m61 18 c17 -29 18 -37 7 -46 -10 -8 -19 -3 -38 22 -24 29 -24 33 -9 45 9 7 18 13 19 13 0 0 10 -15 21 -34z m1760 14 c11 -18 9 -27 -10 -61 l-22 -40 -28 33 -28 33 30 28 c36 32 41 33 58 7z m397 10 c3 -5 1 -19 -5 -31 -11 -20 -12 -20 -25 -2 -9 13 -10 22 -3 30 13 16 25 17 33 3z m235 -75 c0 -26 -13 -21 -51 20 -53 57 -49 75 6 29 25 -20 45 -42 45 -49z m285 69 c23 -15 35 -45 18 -43 -10 0 -57 59 -48 59 3 0 17 -7 30 -16z m-3517 -24 c-23 -32 -38 -38 -38 -17 0 10 44 45 58 47 1 0 -7 -13 -20 -30z m971 -51 c-30 -43 -37 -43 -59 2 -20 38 -20 42 -4 60 16 18 17 17 50 -8 l34 -25 -21 -29z m2370 46 c-7 -7 -13 -5 -19 5 -15 24 -11 31 10 18 13 -9 16 -16 9 -23z m-9054 -52 c25 -9 17 -20 -25 -37 -22 -9 -42 -16 -44 -16 -5 0 2 72 11 110 5 24 5 24 24 -13 11 -21 27 -41 34 -44z m3312 27 c-22 -28 -47 -25 -47 6 0 21 41 45 57 33 10 -9 8 -17 -10 -39z m1966 -10 c-28 -40 -43 -50 -43 -29 0 15 64 87 68 77 2 -4 -9 -26 -25 -48z m3930 32 c18 -19 25 -35 21 -45 -9 -23 -16 -21 -49 13 -31 32 -24 40 13 14 32 -22 27 1 -5 25 -16 11 -23 21 -17 21 5 0 22 -13 37 -28z m-7601 -7 c-2 -9 1 -14 7 -11 14 9 25 -14 13 -26 -6 -6 -17 0 -30 20 -21 28 -19 46 2 39 6 -2 10 -12 8 -22z m5970 -10 c-11 -21 -25 -4 -16 20 4 10 10 13 16 7 7 -7 7 -16 0 -27z m154 -45 l-21 -39 -23 23 -24 23 24 36 23 36 21 -20 22 -20 -22 -39z m184 -26 c42 -46 45 -52 29 -62 -15 -9 -29 -1 -88 54 -71 65 -71 65 -54 91 l17 25 24 -28 c14 -16 46 -52 72 -80z m-6900 50 c0 -20 -3 -18 -29 17 l-23 31 26 -17 c14 -10 26 -24 26 -31z m4755 25 c0 -8 -12 -15 -27 -17 -27 -3 -40 -22 -16 -22 9 0 9 -3 0 -12 -10 -10 -15 -10 -22 2 -7 11 -2 23 17 43 28 28 48 31 48 6z m1355 -42 c-7 -12 -37 -43 -67 -70 -46 -41 -56 -46 -74 -36 -21 11 -21 11 -1 25 11 7 43 43 72 79 52 63 54 64 68 44 12 -17 12 -25 2 -42z m375 23 c-9 -18 -19 -30 -22 -27 -3 3 3 19 13 36 23 39 30 32 9 -9z m1264 -12 c-10 -19 -12 -19 -29 -3 -15 14 -17 21 -7 36 10 17 13 17 29 2 13 -12 15 -20 7 -35z m119 9 c37 -38 41 -45 28 -56 -13 -11 -23 -7 -60 24 -40 32 -44 39 -33 56 6 10 14 19 17 19 3 0 25 -20 48 -43z m-5955 1 c-5 -10 -33 10 -33 23 0 5 9 4 19 -3 11 -7 17 -16 14 -20z m3187 -8 c0 -20 -40 -41 -65 -34 l-26 7 33 34 c30 31 34 32 45 16 7 -9 13 -20 13 -23z m1128 10 c21 -28 22 -31 6 -55 -21 -32 -26 -32 -48 6 -16 26 -16 35 -5 55 16 31 21 30 47 -6z m201 -25 c0 -5 -6 -1 -14 9 -8 11 -15 27 -15 35 1 17 29 -26 29 -44z m1575 47 c2 -4 -4 -13 -15 -20 -15 -10 -19 -10 -19 1 0 24 23 36 34 19z m316 -45 l44 -48 -30 -24 -29 -23 -40 31 c-22 17 -42 32 -44 34 -2 1 2 10 9 18 12 14 17 12 45 -15 17 -16 37 -30 45 -30 9 1 -3 17 -27 38 -33 31 -39 41 -31 56 5 10 11 16 12 14 2 -2 22 -25 46 -51z m-8216 12 c-3 -5 -14 -4 -26 2 -16 9 -18 13 -7 20 15 9 42 -8 33 -22z m4505 -41 c-24 -20 -38 -38 -30 -38 7 0 27 11 43 25 17 14 35 24 41 22 24 -8 15 -25 -27 -55 l-45 -32 -25 22 -26 23 41 48 c34 40 44 46 56 35 13 -10 9 -17 -28 -50z m573 26 c-25 -18 -36 -5 -16 17 13 14 20 16 25 7 4 -7 0 -17 -9 -24z m1154 22 c3 -8 -2 -26 -12 -41 -16 -25 -19 -26 -30 -10 -11 14 -10 22 4 41 20 27 30 30 38 10z m270 -4 c9 -14 9 -22 -1 -35 -12 -16 -14 -16 -28 6 -12 18 -13 27 -4 36 15 15 20 14 33 -7z m-1289 -28 c-9 -10 -38 16 -31 28 4 6 13 4 22 -6 9 -8 13 -19 9 -22z m1202 -5 c-12 -17 -23 -28 -26 -26 -8 9 28 68 38 62 5 -4 0 -19 -12 -36z m-2245 -15 c-6 -34 -8 -36 -20 -19 -11 15 -10 21 4 40 22 30 25 26 16 -21z m3586 -24 c0 -5 -23 -19 -139 -83 -75 -41 -81 -37 -30 22 16 20 22 22 29 11 5 -8 12 -11 16 -7 4 3 2 13 -4 20 -9 10 -8 18 2 32 13 18 15 18 40 2 19 -13 26 -14 26 -5 0 7 -9 19 -21 26 -16 11 -18 16 -9 27 10 13 18 11 51 -13 21 -15 39 -29 39 -32z m-157 32 c11 -12 13 -22 7 -32 -8 -12 -10 -11 -10 7 0 12 -8 27 -17 32 -10 6 -13 11 -7 11 6 0 18 -8 27 -18z m-1324 -11 c8 -14 5 -23 -13 -40 -23 -21 -25 -22 -34 -5 -7 13 -6 24 5 41 18 28 29 29 42 4z m190 1 c7 -12 4 -24 -10 -41 -19 -23 -20 -23 -33 -5 -12 15 -11 22 1 41 18 28 29 29 42 5z m78 -79 c-19 -26 -47 -59 -60 -72 l-26 -23 -49 68 c-32 43 -48 73 -44 83 5 12 8 11 10 -7 2 -12 7 -20 11 -17 5 2 18 -6 31 -20 l22 -24 25 30 26 30 21 -20 c32 -30 40 -26 15 9 -19 25 -20 32 -9 45 12 15 16 14 38 -9 l25 -24 -36 -49z m-366 66 c9 -17 7 -25 -11 -44 -12 -13 -17 -25 -12 -29 6 -3 19 5 29 19 l19 26 23 -25 23 -25 33 39 c55 65 49 21 -7 -53 -27 -37 -53 -67 -56 -67 -7 0 -79 89 -96 118 -5 8 1 23 15 38 27 29 26 29 40 3z m-1521 2 c0 -19 -22 -23 -38 -7 -15 15 -14 16 11 16 15 0 27 -4 27 -9z m94 -20 c22 -23 27 -36 24 -67 l-3 -39 -32 49 c-50 76 -43 113 11 57z m268 13 c-30 -21 -28 -40 3 -20 21 14 24 14 19 1 -4 -11 -2 -13 9 -9 17 6 32 -12 17 -21 -5 -3 -10 -11 -10 -17 0 -6 7 -5 18 3 15 13 16 12 3 -3 -18 -24 -26 -23 -78 8 l-45 26 34 23 c18 13 37 24 43 25 5 0 -1 -7 -13 -16z m-412 -18 c9 -12 4 -19 -30 -36 -64 -33 -83 -21 -30 18 24 17 45 32 46 32 1 0 7 -6 14 -14z m279 -18 c-10 -7 -8 -8 8 -3 15 4 25 0 32 -12 5 -10 13 -15 17 -11 8 9 84 -31 84 -44 0 -15 -54 -30 -85 -24 -45 9 -85 53 -85 93 0 31 2 33 21 22 18 -9 19 -13 8 -21z m-131 -89 c19 -14 21 -21 15 -64 l-6 -48 -23 29 c-26 32 -50 89 -34 79 15 -9 12 11 -4 24 -8 6 -16 21 -19 31 -4 16 0 15 21 -8 15 -15 37 -35 50 -43z m-98 21 c0 -57 -8 -62 -51 -33 l-40 26 38 22 c45 26 53 23 53 -15z m159 -13 c0 -33 -2 -38 -9 -22 -12 28 -12 78 0 70 6 -3 10 -25 9 -48z m291 23 c0 -13 -5 -18 -15 -14 -12 5 -13 10 -4 20 15 19 19 18 19 -6z m-40 -200 c6 0 10 5 10 10 0 6 -3 10 -7 10 -5 0 -40 29 -79 64 l-72 63 42 -4 c28 -4 54 0 75 11 66 35 81 3 81 -170 l0 -83 -40 14 c-63 22 -146 82 -188 135 -32 40 -38 54 -34 83 l4 36 99 -85 c55 -46 104 -84 109 -84z m-5982 96 c11 -7 3 -50 -25 -125 -15 -42 -17 -44 -25 -21 -5 13 -6 66 -2 117 l7 94 18 -30 c9 -16 22 -32 27 -35z m5648 -57 c12 -14 10 -21 -19 -54 l-33 -38 -1 92 -1 93 20 -39 c11 -21 26 -45 34 -54z m-5589 -114 c-3 -49 -9 -100 -14 -113 l-9 -23 -24 27 -25 27 23 -12 c31 -17 42 -5 14 15 -41 28 -44 48 -17 106 13 29 28 73 32 98 l7 45 9 -40 c5 -22 6 -80 4 -130z m5683 89 c0 -14 -4 -22 -10 -19 -5 3 -10 17 -10 31 0 14 4 22 10 19 6 -3 10 -17 10 -31z m77 -55 c43 -48 125 -89 176 -89 l39 0 -7 -37 c-4 -21 -12 -50 -18 -65 l-12 -27 -40 19 c-30 14 -35 19 -18 19 55 2 74 31 21 31 -18 0 -57 12 -86 27 -56 28 -87 70 -102 140 -9 39 -2 36 47 -18z m-172 -19 c-9 -17 -20 -28 -26 -24 -6 4 -2 15 12 30 30 32 33 30 14 -6z m-40 -60 c-12 -19 -22 -10 -17 16 4 22 6 24 14 10 5 -9 6 -21 3 -26z m-5608 -91 c36 -38 36 -42 -2 -131 -4 -11 -3 -18 3 -18 13 0 52 62 52 83 0 10 6 14 14 11 8 -3 17 -27 21 -57 8 -59 9 -206 2 -214 -3 -3 -27 7 -54 21 -47 26 -105 86 -106 110 0 6 1 74 2 151 2 134 2 139 18 110 8 -16 31 -46 50 -66z m5623 62 c-12 -24 -29 -35 -38 -26 -4 3 4 15 18 25 31 24 33 24 20 1z m-5540 -67 c0 -19 -4 -33 -8 -30 -8 5 -4 66 4 66 2 0 4 -16 4 -36z m5570 -47 c0 -7 -18 -33 -40 -57 l-40 -45 3 43 c3 34 9 46 28 57 32 17 49 18 49 2z m10 -130 c-11 -52 -60 -125 -70 -106 -16 30 -20 79 -7 79 7 0 28 16 47 35 18 19 35 34 36 32 2 -1 -1 -20 -6 -40z m280 7 c0 -2 -15 -4 -32 -4 -23 0 -29 3 -19 9 12 8 51 4 51 -5z m-5955 -152 c15 -12 42 -24 61 -28 19 -3 34 -9 34 -12 0 -3 -7 -31 -16 -63 -16 -57 -16 -57 -46 -48 -17 4 -45 20 -64 34 l-34 26 0 87 0 87 19 -31 c10 -17 31 -40 46 -52z m5659 2 c-19 -24 -30 -31 -35 -23 -4 8 5 21 24 35 18 12 33 23 35 23 2 1 -9 -15 -24 -35z"/>
 </g>
</svg>
